<?xml version="1.0" encoding="utf-8"?>
<svg xmlns="http://www.w3.org/2000/svg" style="margin: auto; display: block; shape-rendering: auto;" width="285" height="229" preserveAspectRatio="xMidYMid">
<style type="text/css">
  text {
    text-anchor: middle; font-size: 59px; opacity: 0;
  }
</style>
<g style="transform-origin: 142.5px 114.5px; transform: scale(0.641304);">
<g transform="translate(142.5,114.5)">
  <g transform="translate(0,0)"><g class="path" style="transform: scale(0.91); transform-origin: -187.08px 18.235px; animation: 1.11111s linear -0.676923s infinite normal forwards running breath-883ab0f2-1ea6-4f93-b9e8-2983710831a9;"><path d="M3.68-14.08L3.68-14.08L3.68-14.08Q3.86-23.37 3.86-29.35L3.86-29.35L3.86-29.35Q3.86-35.33 3.04-40.76L3.04-40.76L3.04-40.76Q3.04-41.68 4.88-41.68L4.88-41.68L4.88-41.68Q6.72-41.68 8.05-41.22L8.05-41.22L8.05-41.22Q9.38-40.76 9.94-40.20L9.94-40.20L9.94-40.20Q11.41-38.73 11.64-38.73L11.64-38.73L11.64-38.73Q11.87-38.73 13.06-39.56L13.06-39.56L13.06-39.56Q16.65-41.86 21.02-41.86L21.02-41.86L21.02-41.86Q25.39-41.86 28.66-39.65L28.66-39.65L28.66-39.65Q31.92-37.44 33.30-33.86L33.30-33.86L33.30-33.86Q35.79-27.69 35.79-20.79L35.79-20.79L35.79-20.79Q35.79-13.98 33.30-7.18L33.30-7.18L33.30-7.18Q31.92-3.50 29.26-1.15L29.26-1.15L29.26-1.15Q26.59 1.20 23 1.20L23 1.20L23 1.20Q15.92 1.20 15.92-6.99L15.92-6.99L15.92-6.99Q15.92-9.20 16.84-9.20L16.84-9.20L16.84-9.20Q17.02-9.20 17.89-8.79L17.89-8.79L17.89-8.79Q18.77-8.37 19.60-8.37L19.60-8.37L19.60-8.37Q26.13-8.37 26.13-22.22L26.13-22.22L26.13-22.22Q26.13-36.06 19.14-36.06L19.14-36.06L19.14-36.06Q17.20-36.06 15.87-35.19L15.87-35.19L15.87-35.19Q14.54-34.32 14.17-33.49L14.17-33.49L13.80-32.57L13.80-32.57Q12.51-24.29 12.51-0.64L12.51-0.64L12.51-0.64Q12.51 10.03 12.93 14.67L12.93 14.67L12.93 14.67Q13.34 19.32 13.34 20.24L13.34 20.24L13.34 20.24Q13.34 21.16 12.79 21.90L12.79 21.90L12.79 21.90Q10.95 24.29 7.82 26.17L7.82 26.17L7.82 26.17Q4.69 28.06 2.30 28.06L2.30 28.06L2.30 28.06Q1.38 28.06 1.38 26.86L1.38 26.86L1.38 26.86Q2.85 17.57 3.68-14.08" fill="#ffffff" stroke="none" stroke-width="none" transform="translate(-205.6649842262268,25.13495423977191)" style="fill: rgb(255, 255, 255);"></path></g><g class="path" style="transform: scale(0.91); transform-origin: -149.45px 4.94495px; animation: 1.11111s linear -0.620513s infinite normal forwards running breath-883ab0f2-1ea6-4f93-b9e8-2983710831a9;"><path d="M71.02-27.60L71.02-27.60L70.84-15.82L70.84-15.82Q70.84-3.59 73.51-1.10L73.51-1.10L73.51-1.10Q73.88-0.74 73.88-0.28L73.88-0.28L73.88-0.28Q73.88 1.10 67.94 1.10L67.94 1.10L67.94 1.10Q62.01 1.10 61.64-2.39L61.64-2.39L61.64-2.39Q61.55-3.22 61.55-5.80L61.55-5.80L61.92-20.52L61.92-20.52Q61.92-21.16 61.18-21.16L61.18-21.16L61.18-21.16Q56.76-21.16 52.90-18.68L52.90-18.68L52.90-18.68Q49.04-16.19 49.04-12.33L49.04-12.33L49.04-12.33Q49.04-10.30 50.14-8.92L50.14-8.92L50.14-8.92Q51.24-7.54 52.85-7.54L52.85-7.54L52.85-7.54Q54.46-7.54 55.52-8.19L55.52-8.19L55.52-8.19Q56.58-8.83 56.76-8.92L56.76-8.92L56.76-8.92Q58.33-8.74 58.33-5.66L58.33-5.66L58.33-5.66Q58.33-2.58 55.48-0.69L55.48-0.69L55.48-0.69Q52.62 1.20 49.50 1.20L49.50 1.20L49.50 1.20Q46.37 1.20 44.11 0.09L44.11 0.09L44.11 0.09Q41.86-1.01 40.85-2.39L40.85-2.39L40.85-2.39Q39.84-3.77 39.19-5.52L39.19-5.52L39.19-5.52Q38.55-7.64 38.55-9.20L38.55-9.20L38.55-9.20Q38.55-15.64 42.60-19.50L42.60-19.50L42.60-19.50Q46.64-23.37 52.99-25.02L52.99-25.02L52.99-25.02Q61.36-26.68 61.73-28.06L61.73-28.06L61.73-28.06Q62.01-29.07 62.01-31.46L62.01-31.46L62.01-31.46Q62.01-36.34 57.04-36.34L57.04-36.34L57.04-36.34Q54.92-36.34 53.27-35.01L53.27-35.01L53.27-35.01Q51.61-33.67 51.61-31.65L51.61-31.65L52.16-29.44L52.16-29.44Q51.98-27.88 48.85-27.60L48.85-27.60L47.84-27.51L47.84-27.51Q45.08-27.51 43.47-28.89L43.47-28.89L43.47-28.89Q41.86-30.27 41.86-32.57L41.86-32.57L41.86-32.57Q41.86-34.04 42.83-35.83L42.83-35.83L42.83-35.83Q43.79-37.63 45.26-38.73L45.26-38.73L45.26-38.73Q46.74-39.84 49.82-40.71L49.82-40.71L49.82-40.71Q52.90-41.58 55.75-41.58L55.75-41.58L55.75-41.58Q58.60-41.58 60.17-41.40L60.17-41.40L60.17-41.40Q61.73-41.22 64.45-40.53L64.45-40.53L64.45-40.53Q67.16-39.84 68.95-37.90L68.95-37.90L68.95-37.90Q70.75-35.97 70.89-33.81L70.89-33.81L70.89-33.81Q71.02-31.65 71.02-27.60" fill="#ffffff" stroke="none" stroke-width="none" transform="translate(-205.6649842262268,25.13495423977191)" style="fill: rgb(255, 255, 255);"></path></g><g class="path" style="transform: scale(0.91); transform-origin: -124.06px -5.77504px; animation: 1.11111s linear -0.564103s infinite normal forwards running breath-883ab0f2-1ea6-4f93-b9e8-2983710831a9;"><path d="M88.14-52.62L88.14-52.62L87.58-18.86L87.58-18.86Q87.58-3.04 88.60 0.09L88.60 0.09L88.60 0.09Q88.87 0.64 88.87 1.20L88.87 1.20L88.87 1.20Q88.87 2.30 86.20 2.30L86.20 2.30L86.20 2.30Q83.54 2.30 80.27 0.97L80.27 0.97L80.27 0.97Q77.00-0.37 77.00-2.48L77.00-2.48L77.00-2.48Q78.84-15.36 78.84-36.89L78.84-36.89L78.48-50.97L78.48-50.97Q78.29-53.54 77.42-55.38L77.42-55.38L77.42-55.38Q76.54-57.22 75.72-57.78L75.72-57.78L74.98-58.24L74.98-58.24Q74.34-58.60 74.34-59.06L74.34-59.06L74.34-59.06Q74.34-60.35 78.34-62.24L78.34-62.24L78.34-62.24Q82.34-64.12 86.11-64.12L86.11-64.12L86.11-64.12Q87.58-64.12 87.77-63.11L87.77-63.11L87.77-63.11Q88.14-60.72 88.14-52.62" fill="#ffffff" stroke="none" stroke-width="none" transform="translate(-205.6649842262268,25.13495423977191)" style="fill: rgb(255, 255, 255);"></path></g><g class="path" style="transform: scale(0.91); transform-origin: -84.41px 5.07995px; animation: 1.11111s linear -0.507692s infinite normal forwards running breath-883ab0f2-1ea6-4f93-b9e8-2983710831a9;"><path d="M115.18 0.55L115.18 0.55L115.18 0.55Q116.47-5.89 116.47-17.53L116.47-17.53L116.47-17.53Q116.47-29.16 116.38-31.28L116.38-31.28L116.38-31.28Q116.29-33.40 115.09-34.68L115.09-34.68L115.09-34.68Q113.90-35.97 113.02-36.16L113.02-36.16L113.02-36.16Q112.15-36.34 110.58-36.34L110.58-36.34L110.58-36.34Q109.02-36.34 107.55-34.91L107.55-34.91L107.55-34.91Q106.08-33.49 105.80-32.02L105.80-32.02L105.43-30.54L105.43-30.54Q105.16-27.78 105.16-18.31L105.16-18.31L105.16-18.31Q105.16-8.83 105.57-6.39L105.57-6.39L105.57-6.39Q105.98-3.96 105.98-3.13L105.98-3.13L105.98-3.13Q105.98-2.30 105.25-1.47L105.25-1.47L105.25-1.47Q102.12 1.84 96.42 1.84L96.42 1.84L96.42 1.84Q94.39 1.84 94.39 0.64L94.39 0.64L94.39 0.64Q96.23-10.40 96.23-27.51L96.23-27.51L96.23-27.51Q96.23-33.86 95.96-36.06L95.96-36.06L95.59-39.01L95.59-39.01Q95.50-40.02 95.22-41.22L95.22-41.22L95.22-41.22Q95.22-42.32 98.07-42.32L98.07-42.32L98.07-42.32Q102.30-42.32 103.68-39.19L103.68-39.19L103.68-39.19Q103.78-38.82 104.05-38.82L104.05-38.82L104.05-38.82Q104.33-38.82 105.34-39.56L105.34-39.56L105.34-39.56Q108.38-41.95 113.53-41.95L113.53-41.95L113.53-41.95Q116.47-41.95 119.32-40.85L119.32-40.85L119.32-40.85Q122.18-39.74 123.28-37.90L123.28-37.90L123.28-37.90Q123.37-37.72 123.56-37.72L123.56-37.72L123.56-37.72Q123.74-37.72 124.11-38.09L124.11-38.09L124.11-38.09Q127.97-41.95 134.14-41.95L134.14-41.95L134.14-41.95Q142.32-41.95 145.36-36.06L145.36-36.06L145.36-36.06Q146.46-33.76 146.46-30.27L146.46-30.27L146.46-30.27Q146.46-26.77 145.91-20.33L145.91-20.33L145.91-20.33Q145.36-13.89 145.36-10.49L145.36-10.49L145.36-10.49Q145.36-7.08 146.05-4.32L146.05-4.32L146.05-4.32Q146.74-1.56 147.43-0.37L147.43-0.37L147.43-0.37Q148.12 0.83 148.12 1.01L148.12 1.01L148.12 1.01Q148.12 2.21 145.54 2.21L145.54 2.21L145.54 2.21Q139.20 2.21 136.71-0.37L136.71-0.37L136.71-0.37Q134.23-2.94 134.23-7.13L134.23-7.13L134.23-7.13Q134.23-11.32 135.93-18.45L135.93-18.45L135.93-18.45Q137.63-25.58 137.63-29.16L137.63-29.16L137.63-29.16Q137.63-36.43 131.74-36.43L131.74-36.43L131.74-36.43Q129.26-36.43 127.79-34.96L127.79-34.96L127.79-34.96Q126.32-33.49 126.04-32.02L126.04-32.02L125.86-30.54L125.86-30.54Q125.49-26.31 125.49-20.33L125.49-20.33L125.49-20.33Q125.49-14.35 125.67-10.99L125.67-10.99L125.67-10.99Q125.86-7.64 126.04-5.75L126.04-5.75L126.04-5.75Q126.22-3.86 126.22-3.50L126.22-3.50L126.22-3.50Q126.22-0.92 123.00 0.46L123.00 0.46L123.00 0.46Q119.78 1.84 116.75 1.84L116.75 1.84L116.75 1.84Q115.18 1.84 115.18 0.55" fill="#ffffff" stroke="none" stroke-width="none" transform="translate(-205.6649842262268,25.13495423977191)" style="fill: rgb(255, 255, 255);"></path></g><g class="path" style="transform: scale(0.91); transform-origin: -39.65px 17.315px; animation: 1.11111s linear -0.451282s infinite normal forwards running breath-883ab0f2-1ea6-4f93-b9e8-2983710831a9;"><path d="M167.44 25.48L167.44 25.48L167.44 25.48Q167.44 26.59 166.34 26.59L166.34 26.59L166.24 26.59L166.24 26.59Q163.21 26.59 159.39 24.47L159.39 24.47L159.39 24.47Q155.57 22.36 155.57 19.60L155.57 19.60L155.57 19.60Q155.57 16.84 159.07 9.98L159.07 9.98L159.07 9.98Q162.56 3.13 162.56 0.83L162.56 0.83L162.56 0.83Q162.56-1.66 160.17-8.10L160.17-8.10L160.17-8.10Q157.14-16.47 155.34-21.71L155.34-21.71L155.34-21.71Q153.55-26.96 151.48-30.96L151.48-30.96L151.48-30.96Q149.41-34.96 148.49-35.70L148.49-35.70L147.57-36.34L147.57-36.34Q146.56-36.89 146.56-37.54L146.56-37.54L146.56-37.54Q146.56-38.82 150.56-40.16L150.56-40.16L150.56-40.16Q154.56-41.49 157.60-41.49L157.60-41.49L157.60-41.49Q158.98-41.49 159.90-39.28L159.90-39.28L159.90-39.28Q161.55-34.96 163.48-27.32L163.48-27.32L163.48-27.32Q168.18-11.68 169.37-11.68L169.37-11.68L169.37-11.68Q170.20-11.68 172.73-18.12L172.73-18.12L172.73-18.12Q175.26-24.56 175.26-28.52L175.26-28.52L175.26-28.52Q175.26-35.42 171.21-36.62L171.21-36.62L171.21-36.62Q170.29-36.80 170.29-37.54L170.29-37.54L170.29-37.54Q170.29-39.19 174.62-40.71L174.62-40.71L174.62-40.71Q178.94-42.23 182.44-42.23L182.44-42.23L182.44-42.23Q185.47-42.23 185.47-38.27L185.47-38.27L185.47-38.27Q185.47-35.24 184.18-31.19L184.18-31.19L184.18-31.19Q182.90-27.14 181.79-24.79L181.79-24.79L181.79-24.79Q180.69-22.45 176.32-13.94L176.32-13.94L176.32-13.94Q171.95-5.43 169.10 1.01L169.10 1.01L169.10 1.01Q165.97 8.74 165.97 16.74L165.97 16.74L165.97 16.74Q165.97 20.98 166.70 23.09L166.70 23.09L166.70 23.09Q167.44 25.21 167.44 25.48" fill="#ffffff" stroke="none" stroke-width="none" transform="translate(-205.6649842262268,25.13495423977191)" style="fill: rgb(255, 255, 255);"></path></g><g class="path" style="transform: scale(0.91); transform-origin: -4.46499px 4.93995px; animation: 1.11111s linear -0.394872s infinite normal forwards running breath-883ab0f2-1ea6-4f93-b9e8-2983710831a9;"><path d="M215.46-31.65L215.00-24.66L215.37-21.44L215.37-21.44Q215.37-19.69 212.06-19.69L212.06-19.69L212.06-19.69Q205.34-19.69 205.34-24.75L205.34-24.75L205.34-24.75Q205.34-25.94 205.99-28.06L205.99-28.06L205.99-28.06Q206.63-30.18 206.63-31.74L206.63-31.74L206.63-31.74Q206.63-33.30 205.71-34.45L205.71-34.45L205.71-34.45Q204.79-35.60 203.04-35.60L203.04-35.60L203.04-35.60Q201.30-35.60 200.05-34.36L200.05-34.36L200.05-34.36Q198.81-33.12 198.54-31.83L198.54-31.83L198.17-30.54L198.17-30.54Q197.62-27.69 197.62-21.02L197.62-21.02L197.62-21.02Q197.62-14.35 197.80-10.53L197.80-10.53L197.80-10.53Q197.98-6.72 198.17-5.29L198.17-5.29L198.17-5.29Q198.35-3.86 198.35-3.59L198.35-3.59L198.35-3.59Q198.35-1.29 195.50 0.14L195.50 0.14L195.50 0.14Q192.65 1.56 189.80 1.56L189.80 1.56L189.80 1.56Q186.94 1.56 186.94 0.37L186.94 0.37L187.40-2.48L187.40-2.48Q188.69-10.49 188.69-23.37L188.69-23.37L188.69-23.37Q188.69-36.25 187.77-40.85L187.77-40.85L187.77-40.85Q187.77-41.95 189.70-41.95L189.70-41.95L189.70-41.95Q194.67-41.95 196.33-38.55L196.33-38.55L196.33-38.55Q196.42-38.18 196.65-38.18L196.65-38.18L196.65-38.18Q196.88-38.18 197.89-39.01L197.89-39.01L197.89-39.01Q200.93-41.49 205.07-41.49L205.07-41.49L205.07-41.49Q207.64-41.49 210.22-40.48L210.22-40.48L210.22-40.48Q215.46-38.36 215.46-31.65L215.46-31.65" fill="#ffffff" stroke="none" stroke-width="none" transform="translate(-205.6649842262268,25.13495423977191)" style="fill: rgb(255, 255, 255);"></path></g><g class="path" style="transform: scale(0.91); transform-origin: 27.74px 4.94495px; animation: 1.11111s linear -0.338462s infinite normal forwards running breath-883ab0f2-1ea6-4f93-b9e8-2983710831a9;"><path d="M248.22-27.60L248.22-27.60L248.03-15.82L248.03-15.82Q248.03-3.59 250.70-1.10L250.70-1.10L250.70-1.10Q251.07-0.74 251.07-0.28L251.07-0.28L251.07-0.28Q251.07 1.10 245.13 1.10L245.13 1.10L245.13 1.10Q239.20 1.10 238.83-2.39L238.83-2.39L238.83-2.39Q238.74-3.22 238.74-5.80L238.74-5.80L239.11-20.52L239.11-20.52Q239.11-21.16 238.37-21.16L238.37-21.16L238.37-21.16Q233.96-21.16 230.09-18.68L230.09-18.68L230.09-18.68Q226.23-16.19 226.23-12.33L226.23-12.33L226.23-12.33Q226.23-10.30 227.33-8.92L227.33-8.92L227.33-8.92Q228.44-7.54 230.05-7.54L230.05-7.54L230.05-7.54Q231.66-7.54 232.71-8.19L232.71-8.19L232.71-8.19Q233.77-8.83 233.96-8.92L233.96-8.92L233.96-8.92Q235.52-8.74 235.52-5.66L235.52-5.66L235.52-5.66Q235.52-2.58 232.67-0.69L232.67-0.69L232.67-0.69Q229.82 1.20 226.69 1.20L226.69 1.20L226.69 1.20Q223.56 1.20 221.31 0.09L221.31 0.09L221.31 0.09Q219.05-1.01 218.04-2.39L218.04-2.39L218.04-2.39Q217.03-3.77 216.38-5.52L216.38-5.52L216.38-5.52Q215.74-7.64 215.74-9.20L215.74-9.20L215.74-9.20Q215.74-15.64 219.79-19.50L219.79-19.50L219.79-19.50Q223.84-23.37 230.18-25.02L230.18-25.02L230.18-25.02Q238.56-26.68 238.92-28.06L238.92-28.06L238.92-28.06Q239.20-29.07 239.20-31.46L239.20-31.46L239.20-31.46Q239.20-36.34 234.23-36.34L234.23-36.34L234.23-36.34Q232.12-36.34 230.46-35.01L230.46-35.01L230.46-35.01Q228.80-33.67 228.80-31.65L228.80-31.65L229.36-29.44L229.36-29.44Q229.17-27.88 226.04-27.60L226.04-27.60L225.03-27.51L225.03-27.51Q222.27-27.51 220.66-28.89L220.66-28.89L220.66-28.89Q219.05-30.27 219.05-32.57L219.05-32.57L219.05-32.57Q219.05-34.04 220.02-35.83L220.02-35.83L220.02-35.83Q220.98-37.63 222.46-38.73L222.46-38.73L222.46-38.73Q223.93-39.84 227.01-40.71L227.01-40.71L227.01-40.71Q230.09-41.58 232.94-41.58L232.94-41.58L232.94-41.58Q235.80-41.58 237.36-41.40L237.36-41.40L237.36-41.40Q238.92-41.22 241.64-40.53L241.64-40.53L241.64-40.53Q244.35-39.84 246.15-37.90L246.15-37.90L246.15-37.90Q247.94-35.97 248.08-33.81L248.08-33.81L248.08-33.81Q248.22-31.65 248.22-27.60" fill="#ffffff" stroke="none" stroke-width="none" transform="translate(-205.6649842262268,25.13495423977191)" style="fill: rgb(255, 255, 255);"></path></g><g class="path" style="transform: scale(0.91); transform-origin: 81.28px -5.96004px; animation: 1.11111s linear -0.282051s infinite normal forwards running breath-883ab0f2-1ea6-4f93-b9e8-2983710831a9;"><path d="M282.26-49.40L282.26-49.40L282.16-40.48L282.16-40.48Q282.16-39.93 282.53-39.93L282.53-39.93L282.53-39.93Q282.90-39.93 283.27-40.20L283.27-40.20L283.27-40.20Q285.57-41.77 290.54-41.77L290.54-41.77L290.54-41.77Q298.91-41.77 302.13-36.06L302.13-36.06L302.13-36.06Q303.32-33.95 303.32-30.45L303.32-30.45L303.32-30.45Q303.32-26.96 302.91-20.79L302.91-20.79L302.91-20.79Q302.50-14.63 302.50-12.05L302.50-12.05L302.50-12.05Q302.50-3.04 305.07-0.09L305.07-0.09L305.07-0.09Q305.53 0.37 305.53 0.83L305.53 0.83L305.53 0.83Q305.53 1.75 301.58 1.75L301.58 1.75L301.58 1.75Q290.90 1.75 290.90-8.19L290.90-8.19L290.90-8.19Q290.90-12.05 292.74-19.04L292.74-19.04L292.74-19.04Q294.58-26.04 294.58-29.35L294.58-29.35L294.58-29.35Q294.58-32.66 293.02-34.45L293.02-34.45L293.02-34.45Q291.46-36.25 288.70-36.25L288.70-36.25L288.70-36.25Q285.94-36.25 284.33-35.05L284.33-35.05L284.33-35.05Q282.72-33.86 282.35-32.57L282.35-32.57L282.07-31.37L282.07-31.37Q281.98-29.62 281.98-20.24L281.98-20.24L281.98-20.24Q281.98-10.86 282.44-8.05L282.44-8.05L282.44-8.05Q282.90-5.24 282.90-4.88L282.90-4.88L282.90-4.88Q282.90-2.21 279.31-0.14L279.31-0.14L279.31-0.14Q275.72 1.93 272.23 1.93L272.23 1.93L272.23 1.93Q270.94 1.93 270.94 0.46L270.94 0.46L271.12-1.29L271.12-1.29Q273.15-16.74 273.15-34.78L273.15-34.78L273.15-34.78Q273.15-41.77 272.60-48.94L272.60-48.94L272.50-50.97L272.50-50.97Q272.32-53.54 271.45-55.38L271.45-55.38L271.45-55.38Q270.57-57.22 269.84-57.78L269.84-57.78L269.01-58.24L269.01-58.24Q268.36-58.60 268.36-59.06L268.36-59.06L268.36-59.06Q268.36-60.35 272.69-62.24L272.69-62.24L272.69-62.24Q277.01-64.12 279.36-64.12L279.36-64.12L279.36-64.12Q281.70-64.12 281.89-63.11L281.89-63.11L281.89-63.11Q282.26-58.42 282.26-49.40" fill="#ffffff" stroke="none" stroke-width="none" transform="translate(-205.6649842262268,25.13495423977191)" style="fill: rgb(255, 255, 255);"></path></g><g class="path" style="transform: scale(0.91); transform-origin: 121.53px -27.81px; animation: 1.11111s linear -0.225641s infinite normal forwards running breath-883ab0f2-1ea6-4f93-b9e8-2983710831a9;"><path d="M337.36-48.12L337.36-48.12L337.36-48.12Q337.36-47.29 336.63-47.29L336.63-47.29L336.63-47.29Q335.89-47.29 327.24-53.08L327.24-53.08L327.24-53.08Q318.69-47.29 317.86-47.29L317.86-47.29L317.86-47.29Q317.03-47.29 317.03-48.02L317.03-48.02L317.22-48.76L317.22-48.76Q320.25-54.56 323.56-58.14L323.56-58.14L323.56-58.14Q323.93-58.60 324.76-58.60L324.76-58.60L324.76-58.60Q325.59-58.60 327.24-57.32L327.24-57.32L327.24-57.32Q328.90-58.60 329.82-58.60L329.82-58.60L330.92-58.14L330.92-58.14Q333.68-55.38 336.35-50.42L336.35-50.42L337.27-48.76L337.27-48.76Q337.36-48.48 337.36-48.12" fill="#ffffff" stroke="none" stroke-width="none" transform="translate(-205.6649842262268,25.13495423977191)" style="fill: rgb(255, 255, 255);"></path></g><g class="path" style="transform: scale(0.91); transform-origin: 119.415px 5.26495px; animation: 1.11111s linear -0.169231s infinite normal forwards running breath-883ab0f2-1ea6-4f93-b9e8-2983710831a9;"><path d="M317.31-34.68L317.31-34.68L317.31-34.68Q314.92-34.59 313.86-34.55L313.86-34.55L313.86-34.55Q312.80-34.50 312.80-35.05L312.80-35.05L312.80-35.05Q312.80-35.60 313.35-36.16L313.35-36.16L313.35-36.16Q319.24-41.58 333.22-41.58L333.22-41.58L333.22-41.58Q338.01-41.58 340.77-40.76L340.77-40.76L341.69-40.48L341.69-40.48Q342.79-40.02 342.79-39.47L342.79-39.47L342.79-39.47Q342.79-39.01 342.15-38.73L342.15-38.73L342.15-38.73Q339.66-38.00 337.36-36.39L337.36-36.39L337.36-36.39Q335.06-34.78 335.06-34.13L335.06-34.13L335.62-33.49L335.62-33.49Q338.56-31.83 340.17-28.24L340.17-28.24L340.17-28.24Q341.78-24.66 341.96-21.90L341.96-21.90L342.15-19.04L342.15-19.04Q342.15-9.94 337.09-4.05L337.09-4.05L337.09-4.05Q332.03 1.84 323.29 1.84L323.29 1.84L323.29 1.84Q318.87 1.84 315.65 0.28L315.65 0.28L315.65 0.28Q312.43-1.29 310.91-3.27L310.91-3.27L310.91-3.27Q309.40-5.24 308.48-7.73L308.48-7.73L308.48-7.73Q307.37-11.13 307.37-14.77L307.37-14.77L307.37-14.77Q307.37-18.40 308.61-22.08L308.61-22.08L308.61-22.08Q309.86-25.76 311.47-27.51L311.47-27.51L311.47-27.51Q313.08-29.26 315.10-30.36L315.10-30.36L315.10-30.36Q317.68-31.74 319.24-31.74L319.24-31.74L319.24-31.74Q320.80-31.74 320.80-31.10L320.80-31.10L320.25-30.18L320.25-30.18Q318.23-27.78 317.35-23.92L317.35-23.92L317.35-23.92Q316.48-20.06 316.48-17.07L316.48-17.07L316.48-17.07Q316.48-14.08 317.22-11.13L317.22-11.13L317.22-11.13Q317.95-8.19 318.87-6.76L318.87-6.76L318.87-6.76Q319.79-5.34 320.99-4.60L320.99-4.60L320.99-4.60Q322.74-3.50 324.67-3.50L324.67-3.50L324.67-3.50Q326.60-3.50 328.44-5.01L328.44-5.01L328.44-5.01Q330.28-6.53 331.11-9.02L331.11-9.02L331.11-9.02Q332.76-13.62 332.76-18.49L332.76-18.49L332.76-18.49Q332.76-26.22 328.85-30.45L328.85-30.45L328.85-30.45Q324.94-34.68 317.31-34.68" fill="#ffffff" stroke="none" stroke-width="none" transform="translate(-205.6649842262268,25.13495423977191)" style="fill: rgb(255, 255, 255);"></path></g><g class="path" style="transform: scale(0.91); transform-origin: 150.19px -0.580046px; animation: 1.11111s linear -0.112821s infinite normal forwards running breath-883ab0f2-1ea6-4f93-b9e8-2983710831a9;"><path d="M345.55-35.88L345.55-35.88L345.83-39.56L345.83-39.56Q345.92-40.39 347.12-40.39L347.12-40.39L350.34-40.39L349.97-47.75L349.97-48.12L349.97-48.12Q349.97-50.23 353.19-52.16L353.19-52.16L353.19-52.16Q356.41-54.10 359.08-54.10L359.08-54.10L359.08-54.10Q359.90-54.10 359.90-53.36L359.90-53.36L359.90-53.27L359.90-53.27Q359.54-50.78 359.17-40.48L359.17-40.48L359.17-40.48Q363.22-40.48 364.32-40.66L364.32-40.66L364.32-40.66Q365.42-40.85 365.52-40.85L365.52-40.85L365.52-40.85Q366.16-40.85 366.16-39.74L366.16-39.74L366.16-39.74Q366.16-38.64 365.15-36.94L365.15-36.94L365.15-36.94Q364.14-35.24 362.94-35.14L362.94-35.14L359.08-35.14L359.08-35.14Q358.98-32.02 358.98-24.61L358.98-24.61L358.98-24.61Q358.98-17.20 359.12-12.42L359.12-12.42L359.12-12.42Q359.26-7.64 359.44-5.20L359.44-5.20L359.44-5.20Q359.63-2.76 359.86-1.29L359.86-1.29L359.86-1.29Q360.09 0.18 360.23 0.83L360.23 0.83L360.23 0.83Q360.36 1.47 360.36 1.66L360.36 1.66L360.36 1.66Q360.36 2.58 359.17 2.67L359.17 2.67L359.17 2.67Q355.58 2.67 352.04 1.66L352.04 1.66L352.04 1.66Q348.50 0.64 348.50-1.84L348.50-1.84L348.50-1.84Q350.43-17.30 350.43-35.05L350.43-35.05L350.43-35.05Q347.94-35.05 346.66-34.87L346.66-34.87L346.56-34.87L346.56-34.87Q345.74-34.87 345.55-35.88" fill="#ffffff" stroke="none" stroke-width="none" transform="translate(-205.6649842262268,25.13495423977191)" style="fill: rgb(255, 255, 255);"></path></g><g class="path" style="transform: scale(0.91); transform-origin: 175.355px 5.12495px; animation: 1.11111s linear -0.0564103s infinite normal forwards running breath-883ab0f2-1ea6-4f93-b9e8-2983710831a9;"><path d="M375.36-23.37L375.36-23.37L375.45-21.07L375.45-21.07Q375.45-20.52 376.19-20.52L376.19-20.52L376.19-20.52Q379.13-20.79 381.34-22.03L381.34-22.03L381.34-22.03Q383.55-23.28 384.65-24.84L384.65-24.84L384.65-24.84Q386.86-28.24 387.04-30.73L387.04-30.73L387.14-31.83L387.14-31.83Q387.14-36.80 383.18-36.80L383.18-36.80L383.18-36.80Q380.24-36.80 378.40-34.22L378.40-34.22L378.40-34.22Q375.36-30.18 375.36-23.37zM395.42-11.13L395.42-11.13L395.42-11.13Q395.42-7.64 393.99-5.01L393.99-5.01L393.99-5.01Q392.56-2.39 390.77-1.15L390.77-1.15L390.77-1.15Q388.98 0.09 386.58 0.83L386.58 0.83L386.58 0.83Q383.55 1.75 380.79 1.75L380.79 1.75L380.79 1.75Q373.06 1.75 369.38-4.05L369.38-4.05L369.38-4.05Q365.70-9.84 365.70-18.81L365.70-18.81L365.70-18.81Q365.70-27.78 370.25-34.78L370.25-34.78L370.25-34.78Q374.81-41.77 383.92-41.77L383.92-41.77L383.92-41.77Q392.20-41.77 395.14-35.97L395.14-35.97L395.14-35.97Q396.34-33.76 396.34-31.79L396.34-31.79L396.34-31.79Q396.34-29.81 396.15-28.66L396.15-28.66L396.15-28.66Q395.97-27.51 394.86-25.21L394.86-25.21L394.86-25.21Q393.76-22.91 391.92-21.07L391.92-21.07L391.92-21.07Q390.08-19.23 386.12-17.57L386.12-17.57L386.12-17.57Q382.17-15.92 376.83-15.36L376.83-15.36L376.83-15.36Q376.10-15.36 376.10-14.72L376.10-14.72L376.10-14.72Q376.10-13.89 376.69-12.28L376.69-12.28L376.69-12.28Q377.29-10.67 378.03-9.57L378.03-9.57L378.03-9.57Q380.05-6.99 384.01-6.99L384.01-6.99L384.01-6.99Q387.96-6.99 390.72-9.57L390.72-9.57L390.72-9.57Q392.20-10.95 393.12-12.97L393.12-12.97L393.12-12.97Q393.48-13.71 394.08-13.71L394.08-13.71L394.08-13.71Q394.68-13.71 395.05-12.70L395.05-12.70L395.05-12.70Q395.42-11.68 395.42-11.13" fill="#ffffff" stroke="none" stroke-width="none" transform="translate(-205.6649842262268,25.13495423977191)" style="fill: rgb(255, 255, 255);"></path></g><g class="path" style="transform: scale(0.91); transform-origin: 199.78px -5.77504px; animation: 1.11111s linear 0s infinite normal forwards running breath-883ab0f2-1ea6-4f93-b9e8-2983710831a9;"><path d="M411.98-52.62L411.98-52.62L411.42-18.86L411.42-18.86Q411.42-3.04 412.44 0.09L412.44 0.09L412.44 0.09Q412.71 0.64 412.71 1.20L412.71 1.20L412.71 1.20Q412.71 2.30 410.04 2.30L410.04 2.30L410.04 2.30Q407.38 2.30 404.11 0.97L404.11 0.97L404.11 0.97Q400.84-0.37 400.84-2.48L400.84-2.48L400.84-2.48Q402.68-15.36 402.68-36.89L402.68-36.89L402.32-50.97L402.32-50.97Q402.13-53.54 401.26-55.38L401.26-55.38L401.26-55.38Q400.38-57.22 399.56-57.78L399.56-57.78L398.82-58.24L398.82-58.24Q398.18-58.60 398.18-59.06L398.18-59.06L398.18-59.06Q398.18-60.35 402.18-62.24L402.18-62.24L402.18-62.24Q406.18-64.12 409.95-64.12L409.95-64.12L409.95-64.12Q411.42-64.12 411.61-63.11L411.61-63.11L411.61-63.11Q411.98-60.72 411.98-52.62" fill="#ffffff" stroke="none" stroke-width="none" transform="translate(-205.6649842262268,25.13495423977191)" style="fill: rgb(255, 255, 255);"></path></g></g>
</g>
</g>
<style id="breath-883ab0f2-1ea6-4f93-b9e8-2983710831a9" data-anikit="">@keyframes breath-883ab0f2-1ea6-4f93-b9e8-2983710831a9
{
  0% {
    animation-timing-function: cubic-bezier(0.9647,0.2413,-0.0705,0.7911);
    transform: scale(0.9099999999999999);
  }
  51% {
    animation-timing-function: cubic-bezier(0.9226,0.2631,-0.0308,0.7628);
    transform: scale(1.02994);
  }
  100% {
    transform: scale(0.9099999999999999);
  }
}</style></svg>